<?xml version="1.0" encoding="utf-8"?><!-- Svg Vector Icons : http://www.onlinewebfonts.com/icon --><!DOCTYPE svg PUBLIC "-//W3C//DTD SVG 1.1//EN" "http://www.w3.org/Graphics/SVG/1.1/DTD/svg11.dtd"><svg version="1.1" xmlns="http://www.w3.org/2000/svg" xmlns:xlink="http://www.w3.org/1999/xlink" x="0px" y="0px" viewBox="0 0 1000 1000" enable-background="new 0 0 1000 1000" xml:space="preserve"><metadata> Svg Vector Icons : http://www.onlinewebfonts.com/icon </metadata><g><g transform="translate(0.000000,511.000000) scale(0.100000,-0.100000)"><path d="M2480.9,4802.2c-908.9-237-1550.3-704.5-1985.2-1448.1C313.1,3043.2,100,2425.6,100,2206c0-154.4,219.6-304.4,300-204.4c10.9,13,45.7,128.3,76.1,254.4c91.3,376.2,239.2,719.7,447.9,1032.8c137,206.6,461,539.2,671.9,691.4c324,232.7,802.3,439.2,1195.9,517.5c176.1,32.6,219.6,84.8,169.6,200C2894,4860.9,2789.6,4882.6,2480.9,4802.2z"/><path d="M7155.7,4826.1c-34.8-23.9-78.3-56.5-91.3-73.9c-37-43.5-56.5-152.2-32.6-187c10.9-15.2,130.5-54.4,267.4-89.2c419.7-106.5,752.3-252.2,1058.9-465.3c569.7-393.6,998-1032.8,1156.7-1732.9c69.6-297.9,71.8-304.4,165.2-304.4c89.2,0,193.5,87,217.4,184.8c19.6,76.1-78.3,474-178.3,739.3c-374,967.6-1150.2,1646-2178.7,1900.4C7262.2,4867.4,7227.4,4869.6,7155.7,4826.1z"/><path d="M2585.2,3693.3c-428.3-169.6-819.7-480.5-1071.9-850.2c-121.8-178.3-306.6-567.5-319.6-671.9c-10.9-73.9-2.2-95.7,60.9-165.3c56.5-58.7,93.5-80.4,150-82.6c82.6-4.4,71.7-21.7,237,337c239.2,519.7,628.4,891.5,1163.3,1106.7c108.7,41.3,204.4,91.3,215.3,110.9c58.7,89.1-84.8,278.3-210.9,278.3C2772.2,3754.1,2672.2,3728.1,2585.2,3693.3z"/><path d="M7042.6,3680.2c-91.3-91.3-95.7-200-6.5-241.4c30.4-15.2,152.2-71.7,269.6-128.3c119.6-54.4,280.5-145.7,358.8-202.2c319.6-226.1,602.3-591.4,750.1-969.7c67.4-167.4,93.5-210.9,134.8-221.8c73.9-19.6,187,54.4,234.8,152.2l41.3,82.6l-80.4,200c-243.5,617.5-719.7,1095.9-1324.2,1339.4C7203.5,3778.1,7138.3,3775.9,7042.6,3680.2z"/><path d="M2817.9,2740.9c-293.5-102.2-567.5-369.6-658.8-645.8c-47.8-137-47.8-384.9-2.2-537.1c63.1-213.1,204.4-454.4,267.4-454.4c10.9,0,119.6,102.2,245.7,226.1c337,334.8,682.7,550.1,1141.5,708.8c237,82.6,256.6,113.1,167.4,243.5c-121.8,176.1-397.9,380.5-611,454.4C3218,2786.6,2957.1,2790.9,2817.9,2740.9z"/><path d="M6590.4,2738.8c-178.3-63.1-315.3-154.4-493.6-330.5c-128.3-123.9-169.6-178.3-169.6-221.8c0-69.6,10.9-78.3,206.6-143.5c474-158.7,1017.6-515.3,1250.2-817.5c132.6-171.8,189.2-154.4,317.4,102.2c100,197.9,147.9,402.2,130.5,580.5c-26.1,306.6-269.6,626.2-593.6,787.1c-128.3,63-171.8,71.7-343.5,78.3C6751.2,2777.9,6670.8,2769.2,6590.4,2738.8z"/><path d="M4633.5,1603.8C3407.1,1445,2409.1,490.5,2198.2-731.5c-41.3-247.9-41.3-713.2,0-961.1c104.4-600.1,395.7-1139.3,850.2-1572.1l221.8-210.9l-160.9-369.6c-178.3-410.9-193.5-495.8-110.9-619.7c126.1-189.2,428.3-197.9,543.6-15.2c17.4,28.3,93.5,189.2,167.4,360.9c108.7,250,143.5,308.8,171.8,297.9c400.1-158.7,682.7-213.1,1111.1-213.1c400.1,0,563.1,26.1,924.1,147.9c119.6,41.3,217.4,71.7,217.4,69.6c2.2-2.2,39.1-126.1,84.8-276.1c119.6-391.4,145.7-445.7,250-497.9c100-52.2,158.7-56.5,265.3-21.7c106.5,37,184.8,119.6,210.9,219.6c26.1,97.8,19.6,126.1-132.6,613.2l-93.5,304.4l252.2,250c139.2,139.1,300,326.1,358.8,415.3c332.7,502.3,489.2,1013.3,489.2,1598.1c0,791.5-300,1495.9-869.7,2041.7c-404.4,387-878.4,634.9-1413.3,741.4C5333.6,1612.4,4835.7,1629.8,4633.5,1603.8z M5122.7,977.5c30.4-21.7,71.8-73.9,91.3-115.2c34.8-67.4,39.1-165.3,39.1-1063.2c0-604.5-8.7-1019.7-21.7-1069.8c-19.6-63-134.8-184.8-630.6-650.1c-332.7-313.1-621.9-578.4-639.2-589.2c-52.2-28.3-176.1-26.1-250,4.3c-128.3,52.2-197.9,258.8-126.1,382.7c15.2,26.1,237,245.7,493.6,487c256.6,241.4,495.7,467.5,530.5,500.1l63.1,60.9l2.2,954.5l2.2,956.7l60.9,78.3C4833.5,1038.4,4998.7,1066.7,5122.7,977.5z"/></g></g></svg>